<svg width="64" height="64" viewBox="0 0 64 64" fill="none" xmlns="http://www.w3.org/2000/svg">
<rect x="0.5" y="0.5" width="63" height="63" rx="31.5" fill="#EF4444" stroke="#EF4444"/>
<path d="M30.4375 48V13.875H40.9375C43.9375 13.875 46.6172 14.5547 48.9766 15.9141C51.3516 17.2578 53.2031 19.1797 54.5312 21.6797C55.8594 24.1641 56.5234 26.9922 56.5234 30.1641V31.7344C56.5234 34.9062 55.8672 37.7266 54.5547 40.1953C53.2578 42.6641 51.4219 44.5781 49.0469 45.9375C46.6719 47.2969 43.9922 47.9844 41.0078 48H30.4375ZM37.4688 19.5703V42.3516H40.8672C43.6172 42.3516 45.7188 41.4531 47.1719 39.6562C48.625 37.8594 49.3672 35.2891 49.3984 31.9453V30.1406C49.3984 26.6719 48.6797 24.0469 47.2422 22.2656C45.8047 20.4688 43.7031 19.5703 40.9375 19.5703H37.4688Z" fill="#FEF2F2"/>
<path d="M30.4375 48H29.4375V49H30.4375V48ZM30.4375 13.875V12.875H29.4375V13.875H30.4375ZM48.9766 15.9141L48.4773 16.7806L48.4841 16.7844L48.9766 15.9141ZM54.5312 21.6797L53.6481 22.1488L53.6494 22.1511L54.5312 21.6797ZM54.5547 40.1953L53.6717 39.7259L53.6694 39.7303L54.5547 40.1953ZM41.0078 48L41.0078 49L41.013 49L41.0078 48ZM37.4688 19.5703V18.5703H36.4688V19.5703H37.4688ZM37.4688 42.3516H36.4688V43.3516H37.4688V42.3516ZM49.3984 31.9453L50.3984 31.9547V31.9453H49.3984ZM47.2422 22.2656L46.4613 22.8903L46.464 22.8936L47.2422 22.2656ZM31.4375 48V13.875H29.4375V48H31.4375ZM30.4375 14.875H40.9375V12.875H30.4375V14.875ZM40.9375 14.875C43.7806 14.875 46.2849 15.5173 48.4773 16.7805L49.4758 15.0476C46.9495 13.592 44.0944 12.875 40.9375 12.875V14.875ZM48.4841 16.7844C50.6869 18.0307 52.4058 19.8104 53.6481 22.1488L55.4144 21.2105C54.0004 18.549 52.0162 16.4849 49.469 15.0437L48.4841 16.7844ZM53.6494 22.1511C54.8906 24.473 55.5234 27.1357 55.5234 30.1641H57.5234C57.5234 26.8487 56.8281 23.8551 55.4131 21.2082L53.6494 22.1511ZM55.5234 30.1641V31.7344H57.5234V30.1641H55.5234ZM55.5234 31.7344C55.5234 34.7648 54.8976 37.4201 53.6717 39.7259L55.4377 40.6647C56.8368 38.033 57.5234 35.0477 57.5234 31.7344H55.5234ZM53.6694 39.7303C52.4593 42.0339 50.7566 43.8067 48.5501 45.0696L49.5436 46.8054C52.0871 45.3496 54.0564 43.2942 55.44 40.6604L53.6694 39.7303ZM48.5501 45.0696C46.3382 46.3357 43.8305 46.9852 41.0026 47L41.013 49C44.1539 48.9835 47.0056 48.2581 49.5436 46.8054L48.5501 45.0696ZM41.0078 47H30.4375V49H41.0078V47ZM36.4688 19.5703V42.3516H38.4688V19.5703H36.4688ZM37.4688 43.3516H40.8672V41.3516H37.4688V43.3516ZM40.8672 43.3516C43.8553 43.3516 46.2697 42.3622 47.9494 40.2851L46.3943 39.0274C45.1678 40.5441 43.379 41.3516 40.8672 41.3516V43.3516ZM47.9494 40.2851C49.5957 38.2493 50.3659 35.4262 50.3984 31.9547L48.3985 31.936C48.3684 35.1519 47.6543 37.4694 46.3943 39.0274L47.9494 40.2851ZM50.3984 31.9453V30.1406H48.3984V31.9453H50.3984ZM50.3984 30.1406C50.3984 26.5559 49.659 23.668 48.0204 21.6376L46.464 22.8936C47.7004 24.4257 48.3984 26.7879 48.3984 30.1406H50.3984ZM48.0231 21.6409C46.357 19.5583 43.9388 18.5703 40.9375 18.5703V20.5703C43.4674 20.5703 45.2524 21.3792 46.4613 22.8903L48.0231 21.6409ZM40.9375 18.5703H37.4688V20.5703H40.9375V18.5703Z" fill="#EF4444"/>
<g filter="url(#filter0_d)">
<path d="M28.9766 39.0469C28.9766 37.7188 28.5078 36.7031 27.5703 36C26.6328 35.2812 24.9453 34.5312 22.5078 33.75C20.0703 32.9531 18.1406 32.1719 16.7188 31.4062C12.8438 29.3125 10.9062 26.4922 10.9062 22.9453C10.9062 21.1016 11.4219 19.4609 12.4531 18.0234C13.5 16.5703 14.9922 15.4375 16.9297 14.625C18.8828 13.8125 21.0703 13.4062 23.4922 13.4062C25.9297 13.4062 28.1016 13.8516 30.0078 14.7422C31.9141 15.6172 33.3906 16.8594 34.4375 18.4688C35.5 20.0781 36.0312 21.9062 36.0312 23.9531H29C29 22.3906 28.5078 21.1797 27.5234 20.3203C26.5391 19.4453 25.1562 19.0078 23.375 19.0078C21.6562 19.0078 20.3203 19.375 19.3672 20.1094C18.4141 20.8281 17.9375 21.7812 17.9375 22.9688C17.9375 24.0781 18.4922 25.0078 19.6016 25.7578C20.7266 26.5078 22.375 27.2109 24.5469 27.8672C28.5469 29.0703 31.4609 30.5625 33.2891 32.3438C35.1172 34.125 36.0312 36.3438 36.0312 39C36.0312 41.9531 34.9141 44.2734 32.6797 45.9609C30.4453 47.6328 27.4375 48.4688 23.6562 48.4688C21.0312 48.4688 18.6406 47.9922 16.4844 47.0391C14.3281 46.0703 12.6797 44.75 11.5391 43.0781C10.4141 41.4062 9.85156 39.4688 9.85156 37.2656H16.9062C16.9062 41.0312 19.1562 42.9141 23.6562 42.9141C25.3281 42.9141 26.6328 42.5781 27.5703 41.9062C28.5078 41.2188 28.9766 40.2656 28.9766 39.0469Z" fill="#FEF2F2"/>
<path d="M27.5703 36L26.9618 36.7937L26.9703 36.8L27.5703 36ZM22.5078 33.75L22.1971 34.7005L22.2026 34.7023L22.5078 33.75ZM16.7188 31.4062L16.2434 32.286L16.2447 32.2867L16.7188 31.4062ZM12.4531 18.0234L11.6418 17.4389L11.6406 17.4405L12.4531 18.0234ZM16.9297 14.625L16.5456 13.7017L16.543 13.7028L16.9297 14.625ZM30.0078 14.7422L29.5845 15.6482L29.5906 15.651L30.0078 14.7422ZM34.4375 18.4688L33.5992 19.014L33.603 19.0197L34.4375 18.4688ZM36.0312 23.9531V24.9531H37.0312V23.9531H36.0312ZM29 23.9531H28V24.9531H29V23.9531ZM27.5234 20.3203L26.859 21.0678L26.8658 21.0736L27.5234 20.3203ZM19.3672 20.1094L19.9693 20.9078L19.9775 20.9015L19.3672 20.1094ZM19.6016 25.7578L19.0415 26.5863L19.0469 26.5899L19.6016 25.7578ZM24.5469 27.8672L24.2576 28.8244L24.2588 28.8248L24.5469 27.8672ZM32.6797 45.9609L33.2788 46.7616L33.2824 46.7589L32.6797 45.9609ZM16.4844 47.0391L16.0746 47.9512L16.0801 47.9537L16.4844 47.0391ZM11.5391 43.0781L10.7094 43.6364L10.713 43.6417L11.5391 43.0781ZM9.85156 37.2656V36.2656H8.85156V37.2656H9.85156ZM16.9062 37.2656H17.9062V36.2656H16.9062V37.2656ZM27.5703 41.9062L28.1529 42.7191L28.1617 42.7127L27.5703 41.9062ZM29.9766 39.0469C29.9766 37.452 29.3957 36.119 28.1703 35.2L26.9703 36.8C27.6199 37.2872 27.9766 37.9855 27.9766 39.0469H29.9766ZM28.1787 35.2064C27.0941 34.3748 25.2625 33.5828 22.813 32.7977L22.2026 34.7023C24.6281 35.4797 26.1715 36.1877 26.9619 36.7936L28.1787 35.2064ZM22.8186 32.7995C20.4088 32.0117 18.5413 31.2519 17.1928 30.5258L16.2447 32.2867C17.74 33.0919 19.7319 33.8946 22.1971 34.7005L22.8186 32.7995ZM17.1941 30.5265C13.5499 28.5574 11.9062 26.0306 11.9062 22.9453H9.90625C9.90625 26.9538 12.1376 30.0676 16.2434 32.286L17.1941 30.5265ZM11.9062 22.9453C11.9062 21.3013 12.3617 19.8664 13.2657 18.6063L11.6406 17.4405C10.4821 19.0554 9.90625 20.9018 9.90625 22.9453H11.9062ZM13.2645 18.608C14.1862 17.3286 15.5191 16.3009 17.3164 15.5472L16.543 13.7028C14.4653 14.5741 12.8138 15.812 11.6418 17.4389L13.2645 18.608ZM17.3138 15.5483C19.1288 14.7932 21.1832 14.4062 23.4922 14.4062V12.4062C20.9574 12.4062 18.6368 12.8318 16.5456 13.7017L17.3138 15.5483ZM23.4922 14.4062C25.8065 14.4062 27.8302 14.8286 29.5845 15.6482L30.4311 13.8362C28.3729 12.8746 26.0529 12.4062 23.4922 12.4062V14.4062ZM29.5906 15.651C31.3415 16.4547 32.665 17.5778 33.5992 19.014L35.2758 17.9235C34.1163 16.141 32.4867 14.7797 30.425 13.8334L29.5906 15.651ZM33.603 19.0197C34.5508 20.4554 35.0312 22.0895 35.0312 23.9531H37.0312C37.0312 21.723 36.4492 19.7009 35.272 17.9178L33.603 19.0197ZM36.0312 22.9531H29V24.9531H36.0312V22.9531ZM30 23.9531C30 22.1638 29.4257 20.6535 28.1811 19.567L26.8658 21.0736C27.59 21.7059 28 22.6175 28 23.9531H30ZM28.1878 19.5729C26.9643 18.4853 25.314 18.0078 23.375 18.0078V20.0078C24.9985 20.0078 26.1138 20.4053 26.8591 21.0677L28.1878 19.5729ZM23.375 18.0078C21.5274 18.0078 19.9459 18.4011 18.7568 19.3172L19.9775 20.9015C20.6947 20.3489 21.7851 20.0078 23.375 20.0078V18.0078ZM18.7651 19.3109C17.563 20.2175 16.9375 21.4655 16.9375 22.9688H18.9375C18.9375 22.097 19.2652 21.4388 19.9693 20.9078L18.7651 19.3109ZM16.9375 22.9688C16.9375 24.4818 17.7222 25.6943 19.0415 26.5863L20.1616 24.9294C19.2622 24.3213 18.9375 23.6745 18.9375 22.9688H16.9375ZM19.0469 26.5899C20.2905 27.4189 22.0462 28.1562 24.2576 28.8244L24.8361 26.9099C22.7038 26.2656 21.1626 25.5967 20.1563 24.9258L19.0469 26.5899ZM24.2588 28.8248C28.1917 30.0077 30.9293 31.4407 32.5912 33.06L33.9869 31.6275C31.9926 29.6843 28.902 28.1329 24.8349 26.9096L24.2588 28.8248ZM32.5912 33.06C34.2175 34.6446 35.0312 36.6012 35.0312 39H37.0312C37.0312 36.0863 36.0169 33.6054 33.9869 31.6275L32.5912 33.06ZM35.0312 39C35.0312 41.6595 34.0456 43.6762 32.077 45.163L33.2824 46.7589C35.7825 44.8707 37.0312 42.2467 37.0312 39H35.0312ZM32.0806 45.1603C30.0713 46.6638 27.2972 47.4688 23.6562 47.4688V49.4688C27.5778 49.4688 30.8194 48.6019 33.2788 46.7616L32.0806 45.1603ZM23.6562 47.4688C21.1546 47.4688 18.9038 47.0152 16.8887 46.1244L16.0801 47.9537C18.3774 48.9692 20.9079 49.4688 23.6562 49.4688V47.4688ZM16.8942 46.1269C14.8775 45.2208 13.3854 44.01 12.3651 42.5145L10.713 43.6417C11.974 45.49 13.7787 46.9198 16.0746 47.9512L16.8942 46.1269ZM12.3687 42.5199C11.3651 41.0284 10.8516 39.2892 10.8516 37.2656H8.85156C8.85156 39.6483 9.46302 41.7841 10.7094 43.6364L12.3687 42.5199ZM9.85156 38.2656H16.9062V36.2656H9.85156V38.2656ZM15.9062 37.2656C15.9062 39.354 16.5386 41.0862 17.952 42.2689C19.3312 43.423 21.2912 43.9141 23.6562 43.9141V41.9141C21.5213 41.9141 20.1063 41.4637 19.2355 40.735C18.3989 40.0349 17.9062 38.9429 17.9062 37.2656H15.9062ZM23.6562 43.9141C25.4471 43.9141 26.9846 43.5563 28.1528 42.7191L26.9878 41.0934C26.281 41.6 25.2092 41.9141 23.6562 41.9141V43.9141ZM28.1617 42.7127C29.3703 41.8263 29.9766 40.5661 29.9766 39.0469H27.9766C27.9766 39.9652 27.6453 40.6112 26.9789 41.0998L28.1617 42.7127Z" fill="#EF4444"/>
</g>
<defs>
<filter id="filter0_d" x="4.85156" y="12.4062" width="36.1797" height="45.0625" filterUnits="userSpaceOnUse" color-interpolation-filters="sRGB">
<feFlood flood-opacity="0" result="BackgroundImageFix"/>
<feColorMatrix in="SourceAlpha" type="matrix" values="0 0 0 0 0 0 0 0 0 0 0 0 0 0 0 0 0 0 127 0" result="hardAlpha"/>
<feOffset dy="4"/>
<feGaussianBlur stdDeviation="2"/>
<feComposite in2="hardAlpha" operator="out"/>
<feColorMatrix type="matrix" values="0 0 0 0 0 0 0 0 0 0 0 0 0 0 0 0 0 0 0.25 0"/>
<feBlend mode="normal" in2="BackgroundImageFix" result="effect1_dropShadow"/>
<feBlend mode="normal" in="SourceGraphic" in2="effect1_dropShadow" result="shape"/>
</filter>
</defs>
</svg>
