<?xml version="1.0" standalone="no"?>
<!DOCTYPE svg PUBLIC "-//W3C//DTD SVG 20010904//EN"
 "http://www.w3.org/TR/2001/REC-SVG-20010904/DTD/svg10.dtd">
<svg version="1.0" xmlns="http://www.w3.org/2000/svg"
 width="1781.000000pt" height="1440.000000pt" viewBox="0 0 1781.000000 1440.000000"
 preserveAspectRatio="xMidYMid meet">

<g transform="translate(0.000000,1440.000000) scale(0.100000,-0.100000)"
fill="#000000" stroke="none">
<path d="M12474 13011 c-3 -3 -22 -7 -42 -8 -62 -4 -116 -15 -137 -28 -11 -7
-35 -15 -54 -19 -18 -3 -79 -29 -136 -57 -202 -100 -361 -274 -443 -484 -36
-91 -53 -152 -58 -208 -3 -29 -7 -65 -10 -82 -8 -56 -4 -190 6 -225 6 -19 15
-56 20 -83 11 -53 94 -253 115 -277 8 -8 27 -34 42 -57 32 -47 140 -163 152
-163 5 0 15 -7 22 -17 18 -22 146 -103 162 -103 7 0 22 -6 33 -14 28 -20 168
-63 229 -72 28 -3 57 -10 65 -14 20 -10 284 7 335 21 102 29 222 74 240 89 11
9 43 31 71 49 29 17 65 44 80 59 16 15 38 34 49 42 49 36 156 182 192 260 46
100 53 119 79 225 24 99 26 122 20 238 -3 70 -10 147 -17 170 -45 172 -67 227
-120 300 -16 22 -29 45 -29 50 0 12 -31 46 -120 135 -114 113 -217 173 -386
227 -66 21 -130 40 -144 42 -37 7 -210 9 -216 4z m250 -281 c194 -49 361 -182
449 -357 61 -124 81 -216 75 -352 -19 -375 -318 -661 -693 -661 -281 0 -515
145 -634 393 -185 384 11 835 419 965 85 27 97 29 211 31 66 1 119 -5 173 -19z"/>
<path d="M12532 12671 c-16 -10 -18 -139 -3 -154 5 -5 17 -7 27 -5 16 3 19 14
22 72 4 81 -11 109 -46 87z"/>
<path d="M12230 12584 c-12 -14 -10 -23 14 -67 38 -69 45 -77 66 -77 32 0 31
31 -3 94 -36 64 -55 77 -77 50z"/>
<path d="M12816 12578 c-33 -54 -177 -299 -218 -372 -24 -43 -48 -78 -53 -78
-5 0 -35 56 -65 124 -50 108 -59 123 -81 123 -16 0 -25 -6 -27 -20 -1 -11 31
-92 72 -180 63 -137 76 -160 96 -160 18 0 38 28 112 155 227 392 231 399 218
415 -18 21 -37 19 -54 -7z"/>
<path d="M12006 12364 c-8 -21 6 -37 59 -69 49 -28 83 -32 91 -10 9 21 -12 43
-68 71 -56 28 -74 30 -82 8z"/>
<path d="M12996 12350 c-53 -30 -67 -46 -59 -67 8 -21 44 -15 101 18 42 24 53
35 50 52 -4 31 -34 30 -92 -3z"/>
<path d="M11936 12074 c-35 -35 -8 -54 76 -54 56 0 69 3 78 19 7 15 6 23 -6
35 -21 22 -127 22 -148 0z"/>
<path d="M13014 12076 c-15 -12 -17 -18 -8 -33 12 -19 95 -30 141 -18 25 6 31
33 11 53 -17 17 -120 15 -144 -2z"/>
<path d="M12076 11820 c-62 -36 -78 -53 -70 -73 8 -23 35 -21 81 5 51 29 73
48 73 64 0 31 -34 32 -84 4z"/>
<path d="M12953 11843 c-7 -3 -13 -15 -13 -28 0 -18 13 -30 55 -54 61 -35 77
-37 94 -17 10 12 8 19 -8 35 -27 27 -113 69 -128 64z"/>
<path d="M12283 11658 c-6 -7 -23 -37 -39 -65 -27 -49 -28 -54 -12 -69 24 -25
40 -13 77 55 26 50 30 65 21 76 -15 18 -34 19 -47 3z"/>
<path d="M12765 11650 c-4 -14 4 -39 23 -72 36 -65 56 -79 78 -56 16 15 15 20
-16 75 -18 32 -38 61 -44 65 -19 13 -34 9 -41 -12z"/>
<path d="M12527 11593 c-5 -8 -10 -95 -8 -134 1 -22 30 -32 48 -18 10 9 13 31
11 83 -3 64 -5 71 -25 74 -11 2 -23 -1 -26 -5z"/>
<path d="M8360 11010 c-8 -5 -41 -10 -74 -10 -51 0 -63 -4 -93 -30 -23 -21
-44 -30 -67 -30 -29 0 -40 -7 -70 -47 -37 -51 -101 -113 -116 -113 -23 0 -40
-34 -40 -82 0 -41 -5 -55 -25 -74 -23 -21 -25 -30 -25 -109 0 -62 -5 -95 -17
-118 -11 -21 -18 -55 -18 -97 0 -59 -2 -65 -21 -68 -12 -2 -30 -12 -39 -22
-17 -18 -16 -23 18 -107 19 -48 44 -122 56 -163 22 -78 39 -100 78 -100 16 0
23 -6 23 -18 0 -24 63 -129 102 -169 30 -31 30 -33 24 -100 -4 -37 -14 -100
-22 -139 l-15 -70 -52 -26 c-29 -15 -108 -40 -177 -56 -138 -32 -280 -85 -370
-138 -111 -65 -157 -118 -254 -290 -50 -88 -126 -222 -170 -299 -43 -77 -79
-150 -78 -161 2 -21 -30 -82 -119 -234 -21 -36 -50 -87 -64 -115 -14 -27 -40
-75 -59 -105 -19 -30 -53 -90 -75 -133 -36 -68 -41 -86 -41 -143 0 -74 8 -94
57 -145 24 -25 34 -44 31 -60 l-3 -24 -524 -3 c-367 -1 -528 -6 -538 -13 -14
-12 -19 -171 -7 -203 5 -13 25 -16 120 -16 101 0 116 -2 134 -20 20 -20 20
-33 20 -1722 0 -1350 3 -1708 13 -1728 11 -22 20 -25 72 -28 106 -5 95 -181
95 1488 0 806 3 1576 7 1713 6 240 7 248 29 272 l23 25 506 0 c492 0 506 -1
525 -20 18 -18 20 -34 21 -132 0 -129 18 -191 59 -212 14 -7 39 -19 55 -27
l30 -15 3 -429 c1 -237 0 -440 -3 -452 -3 -15 -15 -24 -38 -28 -94 -18 -135
-132 -84 -235 18 -36 30 -48 64 -60 24 -9 47 -20 52 -25 6 -6 11 -374 13 -910
3 -842 4 -903 21 -928 22 -33 65 -36 128 -7 56 25 115 25 162 0 34 -19 56 -20
299 -20 l262 0 28 27 c29 27 38 79 19 99 -25 24 -35 110 -38 324 -5 320 -11
312 239 308 204 -4 191 14 200 -266 7 -210 7 -220 -17 -314 -30 -117 -31 -132
-5 -158 19 -19 33 -20 289 -20 l270 0 20 26 c25 32 26 67 5 150 -11 47 -14 96
-10 210 7 209 19 341 33 355 19 19 109 16 132 -5 19 -17 20 -34 25 -310 2
-160 7 -311 10 -336 14 -94 11 -90 66 -90 56 0 55 -3 66 110 3 36 8 443 10
904 3 525 8 844 14 851 5 6 28 17 49 24 61 18 81 53 81 145 0 69 -3 78 -27
106 -16 16 -46 35 -68 42 l-40 13 -3 444 c-1 318 1 448 9 457 6 8 28 18 49 24
68 18 74 34 80 196 4 120 8 146 23 161 16 16 40 18 275 17 304 -2 284 -2 607
-2 298 1 273 1 513 0 103 -1 219 -1 257 0 39 0 100 0 138 0 37 0 77 -1 90 0
484 8 1330 6 1362 -3 92 -26 126 -42 155 -75 45 -51 37 -106 -24 -163 -14 -14
-26 -30 -26 -36 0 -7 -8 -19 -18 -28 -15 -14 -42 -17 -155 -17 l-137 0 -38
-34 -37 -34 -3 -259 c-1 -142 -2 -350 -1 -463 1 -113 1 -252 0 -310 -2 -147
-2 -296 3 -920 3 -300 5 -554 4 -565 -4 -141 5 -552 13 -566 9 -18 43 -19 939
-19 831 0 930 2 944 16 14 14 16 163 17 1487 0 810 0 1576 -1 1703 l-2 231 32
31 c31 31 31 31 153 34 l122 3 3 104 c2 77 -1 107 -10 113 -7 4 -277 8 -600 8
l-587 0 -36 31 -35 31 0 302 c0 340 1 336 -71 345 -44 6 -44 6 -47 49 -3 34
-7 42 -23 42 -16 0 -19 -7 -19 -45 0 -43 -1 -45 -29 -45 -28 0 -30 2 -33 48
-3 39 -6 47 -23 47 -17 0 -20 -8 -23 -48 -3 -46 -4 -48 -30 -45 -22 2 -28 9
-32 38 l-5 35 -17 -25 c-10 -13 -18 -30 -18 -37 0 -8 -12 -13 -28 -13 -61 0
-62 -3 -62 -362 0 -272 -2 -328 -14 -338 -11 -9 -103 -11 -358 -10 -189 1
-427 1 -530 0 -116 -1 -195 3 -207 9 -27 15 -673 15 -687 1 -12 -12 -901 -15
-1018 -4 -66 7 -69 8 -83 41 -10 26 -12 58 -7 134 7 99 0 137 -37 199 -5 8
-20 37 -35 64 -14 26 -39 66 -55 89 -16 22 -29 43 -29 47 0 7 -47 94 -115 210
-69 120 -86 154 -80 168 3 8 -1 20 -9 26 -8 6 -30 40 -49 76 -20 36 -94 169
-165 295 -121 215 -134 234 -197 287 -112 95 -317 184 -521 224 -56 11 -99 27
-131 48 l-48 31 -17 95 c-27 156 -26 164 31 226 27 29 59 77 71 106 15 38 31
57 52 68 27 13 34 26 55 98 13 46 37 119 54 163 33 87 31 101 -19 120 -24 9
-24 11 -17 92 4 45 11 92 16 104 4 12 4 25 0 27 -14 9 -41 102 -41 143 0 24
-9 52 -25 75 -14 20 -25 48 -25 62 0 15 -9 33 -19 42 -18 15 -58 54 -91 89
-42 43 -114 95 -133 95 -12 0 -33 9 -46 19 -18 14 -36 17 -85 14 -48 -3 -66 0
-76 11 -14 18 -57 21 -80 6z"/>
<path d="M3334 10195 c-27 -20 -61 -41 -76 -47 -25 -11 -27 -16 -21 -54 6 -47
-9 -84 -36 -84 -10 0 -32 16 -50 35 -17 19 -36 35 -42 35 -6 0 -31 -16 -55
-36 -54 -44 -58 -76 -14 -99 17 -9 30 -20 30 -25 0 -5 9 -14 20 -20 17 -9 26
-4 64 35 48 49 54 51 78 33 22 -18 35 -271 15 -308 -20 -40 -43 -36 -90 13
-36 38 -45 44 -64 36 -13 -4 -23 -13 -23 -18 0 -6 -13 -17 -30 -26 -20 -10
-30 -23 -30 -38 0 -26 67 -97 91 -97 9 0 32 16 52 35 52 51 87 44 87 -15 0
-10 14 -28 30 -40 31 -22 70 -86 70 -115 0 -8 9 -15 20 -15 25 0 40 35 40 90
0 46 44 106 70 95 28 -10 58 -70 65 -127 5 -47 10 -58 25 -58 11 0 20 10 25
27 8 32 40 80 74 109 17 15 25 32 25 55 1 48 26 48 79 0 50 -46 69 -50 91 -20
8 12 25 27 38 33 34 17 35 51 1 73 -15 9 -32 23 -36 30 -4 7 -17 18 -28 23
-17 9 -25 5 -55 -29 -45 -49 -70 -57 -90 -26 -21 32 -18 272 4 298 23 26 48
21 79 -18 15 -19 36 -35 46 -35 23 0 107 69 107 88 0 19 -80 92 -101 92 -8 0
-31 -16 -49 -35 -25 -26 -42 -35 -60 -33 -24 3 -25 5 -22 66 2 41 -1 62 -9 62
-6 0 -29 16 -51 35 -53 45 -99 60 -139 46 -19 -7 -38 -7 -55 -1 -39 15 -48 13
-100 -25z"/>
<path d="M6680 10134 c19 -9 43 -20 52 -25 23 -12 31 -11 23 1 -3 5 -20 13
-38 19 -18 5 -41 12 -52 15 -11 4 -4 -1 15 -10z"/>
<path d="M6640 10072 c0 -11 69 -32 105 -32 38 0 24 12 -33 27 -57 15 -72 16
-72 5z"/>
<path d="M6601 9943 c-1 -20 4 -23 32 -22 29 2 29 2 5 6 -15 2 -29 12 -31 21
-3 12 -5 10 -6 -5z"/>
<path d="M6790 9930 c0 -5 5 -10 11 -10 5 0 7 5 4 10 -3 6 -8 10 -11 10 -2 0
-4 -4 -4 -10z"/>
<path d="M6688 9923 c12 -2 32 -2 45 0 12 2 2 4 -23 4 -25 0 -35 -2 -22 -4z"/>
<path d="M3364 9313 c-19 -13 -24 -196 -34 -1303 -14 -1442 -16 -1544 -36
-1581 -18 -36 -101 -79 -152 -79 -88 0 -154 79 -206 247 -50 156 -56 167 -90
171 -40 5 -105 -65 -134 -144 -62 -167 -49 -315 54 -649 9 -27 18 -95 21 -150
5 -95 4 -103 -22 -155 -33 -66 -101 -178 -170 -280 -66 -97 -126 -215 -159
-312 -25 -74 -26 -83 -26 -330 0 -228 2 -259 20 -311 11 -31 20 -62 20 -70 0
-7 29 -64 64 -125 167 -292 416 -463 769 -528 73 -13 125 -16 261 -11 94 4
191 11 216 17 28 6 342 10 822 10 589 0 778 3 784 12 10 16 7 3709 -3 3719 -4
4 -30 9 -58 11 l-50 3 -7 45 c-5 25 -9 284 -11 575 l-2 530 -87 3 -87 3 -3
-33 c-3 -32 -4 -33 -59 -38 -74 -7 -88 -19 -82 -73 4 -36 1 -48 -22 -75 l-27
-32 -308 0 c-171 0 -320 -4 -334 -10 -19 -7 -24 -16 -24 -37 1 -16 -4 -38 -11
-50 -29 -55 -42 -53 354 -53 l365 0 0 -75 0 -75 -426 0 c-429 0 -457 2 -477
36 -24 41 -37 -13 -15 -61 8 -18 8 -31 0 -50 -10 -21 -18 -24 -74 -27 -49 -2
-64 -7 -66 -19 -2 -10 6 -19 20 -22 13 -4 230 -7 482 -7 428 0 460 -1 494 -19
105 -54 108 -218 5 -282 l-38 -24 -455 -2 c-250 -1 -478 -5 -507 -8 l-52 -6 2
-57 2 -57 -100 0 -100 0 -8 475 c-4 261 -10 675 -15 920 l-7 445 -100 3 c-55
1 -105 -1 -111 -5z m1646 -993 c0 -11 -7 -20 -15 -20 -15 0 -21 21 -8 33 12
13 23 7 23 -13z m4 -355 c7 -20 -3 -45 -19 -45 -7 0 -18 7 -25 15 -10 12 -10
18 0 30 7 8 18 15 25 15 7 0 15 -7 19 -15z"/>
<path d="M4690 8580 c0 -5 5 -10 10 -10 6 0 10 5 10 10 0 6 -4 10 -10 10 -5 0
-10 -4 -10 -10z"/>
<path d="M11623 8030 c0 -36 2 -50 4 -32 2 17 2 47 0 65 -2 17 -4 3 -4 -33z"/>
<path d="M11620 7640 c0 -5 5 -10 11 -10 5 0 7 5 4 10 -3 6 -8 10 -11 10 -2 0
-4 -4 -4 -10z"/>
<path d="M15860 4820 c0 -6 6 -13 13 -15 6 -3 198 -6 425 -8 396 -2 414 -3
428 -21 18 -26 18 -51 -2 -70 -13 -14 -65 -16 -419 -16 -222 0 -410 -3 -419
-6 -9 -3 -16 -15 -16 -26 0 -45 -18 -58 -79 -58 -47 0 -61 -4 -79 -23 -25 -27
-39 -81 -23 -91 12 -8 15 -65 3 -83 -4 -7 -17 -16 -29 -20 -15 -5 -19 -12 -14
-21 6 -10 111 -13 519 -12 545 1 553 0 596 -49 11 -12 21 -42 24 -71 4 -47 3
-52 -36 -90 l-40 -40 -519 0 c-434 0 -522 -2 -539 -14 -18 -14 -18 -15 6 -24
14 -6 39 -26 57 -46 l31 -36 500 0 501 0 20 -26 c12 -15 21 -34 21 -44 0 -10
-9 -29 -21 -44 l-20 -26 -493 0 c-409 0 -495 -2 -512 -14 -10 -8 -16 -17 -13
-20 3 -3 234 -6 513 -6 566 -1 543 -4 573 67 18 44 12 69 -27 118 -40 50 -39
84 5 141 27 36 35 55 35 89 0 94 -58 159 -155 171 -57 8 -75 18 -75 45 0 10
-6 21 -12 26 -7 4 -202 10 -433 13 l-420 5 -9 27 c-8 22 -6 32 9 48 18 19 29
20 425 20 434 0 435 0 442 50 3 23 7 25 65 28 53 3 65 7 83 29 13 17 20 41 20
69 0 36 -5 46 -29 63 -28 20 -40 21 -455 21 -286 0 -426 -3 -426 -10z"/>
</g>
</svg>
