<svg
              version="1.0"
              xmlns="http://www.w3.org/2000/svg"
              width="2500.000000pt"
              height="1440.000000pt"
              viewBox="0 0 2560.000000 1440.000000"
              preserveAspectRatio="xMidYMid meet"
            >
              <g
                transform="translate(0.000000,1440.000000) scale(0.100000,-0.100000)"
                fill="#FCA5A5"
                stroke="#7F1D1D"
              >
                <path
                  d="M0 7200 l0 -7200 12800 0 12800 0 0 7200 0 7200 -12800 0 -12800 0 0 -7200z m13105 4612 c352 -108 552 -466 460 -822 -57 -220 -230 -400 -450 -470
-108 -34 -257 -38 -364 -11 -261 68 -442 256 -506 526 -12 51 -6 221 10 289
55 240 246 430 497 496 98 25 255 22 353 -8z m-802 -3479 c3 -5 8 -29 11 -55
l7 -47 -40 -21 c-23 -11 -41 -26 -41 -34 0 -7 13 -44 28 -82 15 -38 36 -98 46
-134 27 -98 37 -115 74 -118 23 -2 32 -8 32 -21 0 -22 63 -127 97 -163 23 -24
26 -35 24 -89 -2 -53 -11 -113 -26 -179 -2 -8 -4 -18 -4 -22 -2 -21 -85 -58
-161 -73 -173 -35 -356 -104 -458 -174 -108 -74 -119 -90 -362 -528 l-85 -153
-187 0 -188 0 0 950 0 950 614 0 c338 0 617 -3 619 -7z m2367 -943 l0 -950
-192 0 -193 0 -21 38 c-43 74 -208 369 -253 451 -74 134 -189 222 -387 297
-65 24 -246 73 -289 78 -21 2 -106 52 -117 69 -9 15 -28 151 -28 208 0 46 4
56 44 100 24 27 54 74 67 104 15 35 29 55 39 55 26 0 45 30 64 100 9 36 32
103 50 150 36 91 35 103 -11 121 -19 7 -23 16 -23 53 0 83 -62 76 631 76 l619
0 0 -950z m1611 -280 c12 -21 111 -680 105 -696 -4 -11 -40 -14 -165 -14
l-159 0 -1 -400 0 -400 144 0 145 0 0 -45 0 -45 -314 0 c-339 0 -327 -2 -317
55 l6 30 138 3 137 3 0 399 0 400 -154 0 c-111 0 -156 3 -164 13 -7 8 0 79 23
232 19 121 42 274 51 340 10 66 21 125 26 131 5 7 88 10 249 10 204 -1 243 -3
250 -16z m-6892 -576 c40 -33 42 -79 5 -123 l-26 -31 -304 0 -304 0 0 90 0 90
299 0 299 0 31 -26z m8241 -200 l0 -154 -30 0 -30 0 0 155 c0 136 2 155 17
164 37 20 43 -3 43 -165z m-102 -46 l3 -108 -31 0 -30 0 0 103 c0 57 3 107 7
111 4 4 16 6 28 4 18 -3 20 -11 23 -110z m300 90 c5 -13 7 -50 6 -83 -1 -33
-3 -72 -3 -87 -1 -24 -5 -28 -31 -28 l-30 0 0 94 c0 52 3 101 6 110 9 24 43
19 52 -6z m-96 -51 c4 -10 3 -71 -1 -129 -1 -13 -10 -18 -31 -18 l-30 0 0 75
c0 59 3 76 17 83 19 11 40 6 45 -11z m-8322 -167 l0 -70 -419 0 c-408 0 -419
1 -445 21 -33 26 -34 62 -1 94 l24 25 421 0 420 0 0 -70z m-74 -229 c61 -28
89 -73 89 -143 0 -61 -17 -94 -69 -132 -27 -20 -41 -21 -496 -24 l-468 -3 -1
161 -2 160 453 0 c420 0 456 -2 494 -19z m11422 -3107 c27 -19 28 -48 4 -72
-18 -18 -42 -19 -403 -18 l-384 1 -3 53 -3 52 383 0 c331 0 387 -2 406 -16z
m-158 -254 l0 -50 -381 0 c-243 0 -387 4 -400 10 -22 12 -26 59 -7 78 9 9 112
12 400 12 l388 0 0 -50z m153 -174 c45 -19 68 -48 74 -94 6 -46 -15 -94 -54
-119 -24 -16 -67 -18 -512 -18 l-486 0 -3 123 -3 122 476 0 c379 0 482 -3 508
-14z m59 -376 c15 -21 17 -31 8 -56 -6 -17 -22 -36 -36 -43 -17 -8 -162 -11
-484 -11 l-460 0 0 70 0 70 476 -2 477 -3 19 -25z"
                />
                <path d="M12891 11756 c-7 -9 -11 -41 -9 -83 3 -65 4 -68 28 -68 24 0 25 3 28 68 3 64 -7 97 -28 97 -4 0 -13 -6 -19 -14z" />
                <path d="M12601 11676 c-10 -11 -9 -22 5 -48 29 -57 55 -88 74 -88 33 0 31 30 -6 91 -36 60 -52 70 -73 45z" />
                <path d="M13152 11643 c-16 -27 -78 -133 -138 -237 l-109 -188 -25 53 c-14 30 -39 87 -57 127 -33 75 -55 95 -79 71 -11 -12 -4 -36 55 -167 71 -160 88 -186 112 -177 8 3 39 49 70 103 31 53 100 173 153 265 80 137 96 171 86 182 -21 25 -37 17 -68 -32z" />
                <path d="M12390 11465 c-16 -19 -3 -35 55 -70 53 -30 81 -32 88 -5 4 16 -3 26 -31 44 -82 51 -93 54 -112 31z" />
                <path d="M13347 11451 c-61 -36 -69 -44 -61 -64 9 -24 39 -21 89 8 58 35 71 51 55 70 -17 21 -28 19 -83 -14z" />
                <path d="M12314 11182 c-17 -17 -17 -17 2 -36 16 -16 105 -22 138 -10 19 7 21 39 4 51 -22 14 -129 10 -144 -5z" />
                <path d="M13354 11183 c-17 -18 -17 -18 2 -37 16 -16 105 -22 138 -10 19 7 21 40 4 51 -24 14 -128 11 -144 -4z" />
                <path d="M12443 10930 c-58 -33 -66 -42 -57 -64 8 -21 27 -20 75 4 52 27 80 56 73 75 -9 22 -33 18 -91 -15z" />
                <path d="M13290 10945 c-17 -20 -5 -33 63 -70 47 -25 57 -27 71 -16 25 21 20 29 -39 66 -60 39 -77 42 -95 20z" />
                <path d="M12624 10734 c-36 -56 -38 -79 -8 -91 20 -7 35 9 68 71 19 37 23 53 14 63 -20 24 -38 13 -74 -43z" />
                <path d="M13116 10774 c-7 -19 49 -123 71 -131 8 -3 21 1 30 10 14 13 12 21 -19 73 -35 61 -69 81 -82 48z" />
                <path d="M12886 10715 c-3 -9 -6 -43 -6 -75 0 -65 18 -93 45 -70 12 10 15 30 13 84 -3 64 -5 71 -24 74 -13 2 -24 -4 -28 -13z" />
                <path d="M11185 8142 c-7 -7 15 -32 29 -32 6 0 23 -7 38 -14 15 -8 30 -11 33 -6 6 10 -91 60 -100 52z" />
                <path d="M11176 8061 c-6 -10 60 -31 99 -31 38 0 24 12 -33 27 -58 15 -60 15 -66 4z" />
                <path d="M11135 7991 c0 -38 3 -72 7 -76 3 -4 6 28 5 69 0 42 -3 76 -6 76 -4 0 -6 -31 -6 -69z" />
                <path d="M11325 8050 c3 -5 8 -10 11 -10 2 0 4 5 4 10 0 6 -5 10 -11 10 -5 0 -7 -4 -4 -10z" />
                <path d="M11320 8020 c0 -5 5 -10 11 -10 5 0 7 5 4 10 -3 6 -8 10 -11 10 -2 0 -4 -4 -4 -10z" />
                <path d="M11176 8002 c-2 -4 26 -9 62 -11 37 -1 64 0 60 4 -9 10 -117 15 -122 7z" />
                <path d="M11323 7985 c0 -8 4 -15 9 -15 4 0 8 7 8 15 0 8 -4 15 -8 15 -5 0 -9 -7 -9 -15z" />
                <path d="M11176 7962 c-2 -4 22 -9 54 -10 33 -2 61 1 65 7 4 7 -14 11 -54 11 -33 0 -62 -3 -65 -8z" />
                <path d="M11160 7922 c0 -5 7 -9 15 -9 8 0 15 4 15 9 0 4 -7 8 -15 8 -8 0 -15 -4 -15 -8z" />
                <path d="M11200 7920 c0 -7 26 -10 69 -8 38 1 68 5 66 8 -7 11 -135 11 -135 0z" />
              </g>
            </svg>